<?xml version="1.0" encoding="UTF-8"?>
<svg xmlns="http://www.w3.org/2000/svg" viewBox="0 0 1080 1080">
  <g transform="translate(153.08, -21.92) scale(0.7165)">
    <polygon fill="currentColor" points="416.17 662.19 673.36 919.38 773.2 919.38 841 919.38 930.54 919.38 930.54 662.19 416.17 662.19"/>
    <polygon fill="currentColor" points="158.98 147.82 158.98 405.01 416.17 662.19 416.17 405.01 930.54 405.01 930.54 147.82 158.98 147.82"/>
    <rect fill="#d1a35a" x="149.46" y="662.19" width="266.71" height="266.71"/>
  </g>
  <path fill="currentColor" d="M302.87 858.44L342.18 869.53Q337.39 886.92 326.81 898.13Q316.22 909.35 301.61 914.51Q286.99 919.68 269.35 919.68L269.35 919.68Q244.15 919.68 225.76 909.47Q207.36 899.27 197.53 880.12Q187.70 860.96 187.70 834L187.70 834Q187.70 807.04 197.53 787.88Q207.36 768.73 225.76 758.53Q244.15 748.32 269.10 748.32L269.10 748.32Q286.49 748.32 301.10 753.23Q315.72 758.15 325.80 768.23Q335.88 778.31 340.16 794.18L340.16 794.18L302.11 809.56Q298.58 793.93 290.65 788.14Q282.71 782.34 270.61 782.34L270.61 782.34Q258.77 782.34 250.07 788.14Q241.38 793.93 236.72 805.40Q232.06 816.86 232.06 834L232.06 834Q232.06 850.88 236.34 862.48Q240.62 874.07 249.32 879.86Q258.01 885.66 270.86 885.66L270.86 885.66Q282.96 885.66 291.40 878.98Q299.84 872.30 302.87 858.44L302.87 858.44ZM449.78 748.32L449.78 748.32Q474.98 748.32 493.25 758.53Q511.52 768.73 521.35 787.88Q531.18 807.04 531.18 834L531.18 834Q531.18 860.96 521.35 880.12Q511.52 899.27 493.25 909.47Q474.98 919.68 449.78 919.68L449.78 919.68Q424.58 919.68 406.19 909.47Q387.79 899.27 377.96 880.12Q368.14 860.96 368.14 834L368.14 834Q368.14 807.04 377.96 787.88Q387.79 768.73 406.19 758.53Q424.58 748.32 449.78 748.32ZM449.78 782.34L449.78 782.34Q437.69 782.34 429.37 788.14Q421.06 793.93 416.77 805.40Q412.49 816.86 412.49 834L412.49 834Q412.49 850.88 416.77 862.48Q421.06 874.07 429.37 879.86Q437.69 885.66 449.78 885.66L449.78 885.66Q461.88 885.66 470.07 879.86Q478.26 874.07 482.54 862.48Q486.83 850.88 486.83 834L486.83 834Q486.83 816.86 482.54 805.40Q478.26 793.93 470.07 788.14Q461.88 782.34 449.78 782.34ZM569.74 750.84L640.30 750.84Q679.36 750.84 700.15 772.51Q720.94 794.18 720.94 834L720.94 834Q720.94 873.82 700.15 895.49Q679.36 917.16 640.30 917.16L640.30 917.16L569.74 917.16L569.74 750.84ZM613.08 884.40L636.01 884.40Q657.18 884.40 666.88 871.67Q676.58 858.95 676.58 834L676.58 834Q676.58 809.05 666.88 796.33Q657.18 783.60 636.01 783.60L636.01 783.60L613.08 783.60L613.08 884.40ZM892.30 917.16L759.49 917.16L759.49 750.84L889.02 750.84L889.02 784.36L802.84 784.36L802.84 818.12L871.38 818.12L871.38 849.62L802.84 849.62L802.84 883.64L892.30 883.64L892.30 917.16Z"/>
</svg>
