<?xml version="1.0" encoding="UTF-8"?>
<svg xmlns="http://www.w3.org/2000/svg" viewBox="0 0 1080 1080">
  <g transform="translate(111.63, -57.26) scale(0.7933)">
    <polygon fill="currentColor" points="416.17 662.19 673.36 919.38 773.2 919.38 841 919.38 930.54 919.38 930.54 662.19 416.17 662.19"/>
    <polygon fill="currentColor" points="158.98 147.82 158.98 405.01 416.17 662.19 416.17 405.01 930.54 405.01 930.54 147.82 158.98 147.82"/>
    <rect fill="#d1a35a" x="149.46" y="662.19" width="266.71" height="266.71"/>
  </g>
  <path fill="currentColor" d="M213.92 766.16L213.92 766.16Q228.32 766.16 238.72 767.44Q249.12 768.72 258.08 771.76Q267.04 774.80 276.96 779.92L276.96 779.92Q278.88 781.20 279.36 782Q279.84 782.80 280.16 786.96L280.16 786.96L284.00 823.44Q284.00 824.08 282.24 824.56Q280.48 825.04 280.16 823.76L280.16 823.76Q273.12 797.20 256.96 783.92Q240.80 770.64 213.92 770.64L213.92 770.64Q185.44 770.64 164.32 782.48Q143.20 794.32 131.52 816.08Q119.84 837.84 119.84 867.28L119.84 867.28Q119.84 888.08 127.36 906.64Q134.88 925.20 148.16 939.28Q161.44 953.36 178.40 961.36Q195.36 969.36 214.56 969.36L214.56 969.36Q242.08 969.36 258.72 956.08Q275.36 942.80 282.40 917.20L282.40 917.20Q282.72 916.24 284.48 916.56Q286.24 916.88 286.24 917.52L286.24 917.52L283.68 951.44Q283.36 955.28 282.72 956.24Q282.08 957.20 280.16 958.48L280.16 958.48Q263.20 967.44 248.64 970.64Q234.08 973.84 214.24 973.84L214.24 973.84Q180.64 973.84 154.72 960.56Q128.80 947.28 114.08 923.28Q99.36 899.28 99.36 867.60L99.36 867.60Q99.36 844.56 107.84 826Q116.32 807.44 131.84 794Q147.36 780.56 168.16 773.36Q188.96 766.16 213.92 766.16ZM439.84 973.52L439.84 973.52Q416.80 973.52 398.08 965.36Q379.36 957.20 366.08 942.80Q352.80 928.40 345.60 909.68Q338.40 890.96 338.40 869.84L338.40 869.84Q338.40 843.92 348.48 824.40Q358.56 804.88 375.20 791.92Q391.84 778.96 411.68 772.56Q431.52 766.16 451.04 766.16L451.04 766.16Q474.72 766.16 493.44 774.64Q512.16 783.12 525.28 797.52Q538.40 811.92 545.28 830.16Q552.16 848.40 552.16 867.60L552.16 867.60Q552.16 890 543.20 909.20Q534.24 928.40 518.72 942.80Q503.20 957.20 482.88 965.36Q462.56 973.52 439.84 973.52ZM451.36 967.12L451.36 967.12Q473.76 967.12 492.00 956.72Q510.24 946.32 520.96 926Q531.68 905.68 531.68 876.56L531.68 876.56Q531.68 846.16 520 822.96Q508.32 799.76 487.20 786.48Q466.08 773.20 437.60 773.20L437.60 773.20Q400.48 773.20 379.68 796.24Q358.88 819.28 358.88 858.96L358.88 858.96Q358.88 881.36 365.44 901.04Q372.00 920.72 384.32 935.60Q396.64 950.48 413.60 958.80Q430.56 967.12 451.36 967.12ZM682.08 970.96L682.08 970.96Q673.12 970.96 660 970Q646.88 969.04 635.68 969.04L635.68 969.04Q625.44 969.04 615.84 969.36Q606.24 969.68 598.56 969.68L598.56 969.68Q597.92 969.68 597.92 967.76Q597.92 965.84 598.56 965.84L598.56 965.84Q610.72 965.84 616.96 964.24Q623.20 962.64 625.28 957.84Q627.36 953.04 627.36 943.76L627.36 943.76L627.36 795.60Q627.36 786.32 625.28 781.68Q623.20 777.04 617.12 775.28Q611.04 773.52 598.88 773.52L598.88 773.52Q598.24 773.52 598.24 771.60Q598.24 769.68 598.88 769.68L598.88 769.68Q606.56 769.68 616 770.16Q625.44 770.64 635.68 770.64L635.68 770.64Q645.92 770.64 657.60 769.84Q669.28 769.04 677.60 769.04L677.60 769.04Q711.84 769.04 737.44 781.84Q763.04 794.64 777.28 816.72Q791.52 838.80 791.52 866.32L791.52 866.32Q791.52 890.32 782.88 909.68Q774.24 929.04 759.04 942.64Q743.84 956.24 724 963.60Q704.16 970.96 682.08 970.96ZM678.88 966.80L678.88 966.80Q705.76 966.80 726.40 956.08Q747.04 945.36 758.88 924.40Q770.72 903.44 770.72 873.36L770.72 873.36Q770.72 845.20 759.68 822.64Q748.64 800.08 728.48 786.64Q708.32 773.20 680.48 773.20L680.48 773.20Q660.96 773.20 652.64 777.20Q644.32 781.20 644.32 796.24L644.32 796.24L644.32 940.24Q644.32 954 650.88 960.40Q657.44 966.80 678.88 966.80ZM972.64 969.68L972.64 969.68L840.48 969.68Q839.84 969.68 839.84 967.76Q839.84 965.84 840.48 965.84L840.48 965.84Q852.64 965.84 858.72 964.24Q864.80 962.64 866.88 957.84Q868.96 953.04 868.96 943.76L868.96 943.76L868.96 795.60Q868.96 786.32 866.88 781.68Q864.80 777.04 858.72 775.28Q852.64 773.52 840.48 773.52L840.48 773.52Q839.84 773.52 839.84 771.60Q839.84 769.68 840.48 769.68L840.48 769.68L967.20 769.68Q970.08 769.68 970.08 772.56L970.08 772.56L970.72 811.28Q970.72 812.24 968.96 812.24Q967.20 812.24 967.20 811.28L967.20 811.28Q967.20 794.64 958.56 785.20Q949.92 775.76 935.84 775.76L935.84 775.76L913.76 775.76Q901.92 775.76 896 777.36Q890.08 778.96 888 783.60Q885.92 788.24 885.92 797.52L885.92 797.52L885.92 942.48Q885.92 951.44 888 955.92Q890.08 960.40 896 962Q901.92 963.60 913.76 963.60L913.76 963.60L943.20 963.60Q956 963.60 965.28 952.40Q974.56 941.20 976.80 922.96L976.80 922.96Q976.80 922 978.72 922.16Q980.64 922.32 980.64 923.28L980.64 923.28Q979.36 931.60 978.56 943.28Q977.76 954.96 977.76 964.88L977.76 964.88Q977.76 969.68 972.64 969.68ZM954.72 894.48L954.72 894.48Q954.72 880.08 948.64 874.32Q942.56 868.56 927.20 868.56L927.20 868.56L877.92 868.56L877.92 862.48L928.16 862.48Q942.88 862.48 948.64 857.52Q954.40 852.56 954.40 840.40L954.40 840.40Q954.40 839.76 956.32 839.76Q958.24 839.76 958.24 840.40L958.24 840.40Q958.24 849.68 958.08 854.80Q957.92 859.92 957.92 865.68L957.92 865.68Q957.92 872.72 958.24 879.60Q958.56 886.48 958.56 894.48L958.56 894.48Q958.56 895.12 956.64 895.12Q954.72 895.12 954.72 894.48Z"/>
</svg>
