<?xml version="1.0" encoding="UTF-8"?>
<svg xmlns="http://www.w3.org/2000/svg" viewBox="0 0 1920 300">
  <path fill="currentColor" d="M400.41,130.95v-3.42c0-2.66-.95-4.92-2.85-6.77-1.9-1.85-4.18-2.78-6.84-2.78h-62.56c-3.9,0-7.17,1.35-9.83,4.06-2.66,2.71-3.99,6.01-3.99,9.9v32.63c0,3.9,1.33,7.17,3.99,9.83,2.66,2.66,5.94,3.99,9.83,3.99h48.45v.14h14.11c2.66,0,4.94-.93,6.84-2.78,1.9-1.85,2.85-4.11,2.85-6.77v-3.42h22.23v3.42c0,4.27-.79,8.31-2.35,12.11-1.57,3.8-3.88,7.22-6.92,10.26-3.04,3.04-6.49,5.37-10.34,6.98-3.85,1.62-7.92,2.42-12.2,2.42h-14.12v-.14h-48.5c-4.85,0-9.47-.9-13.84-2.71-4.38-1.8-8.28-4.42-11.7-7.84-3.43-3.42-6.04-7.31-7.85-11.68-1.81-4.37-2.71-8.98-2.71-13.82v-32.63c0-4.85.9-9.48,2.71-13.89,1.81-4.42,4.42-8.29,7.85-11.61,3.42-3.42,7.32-6.06,11.7-7.91,4.37-1.85,8.99-2.78,13.84-2.78h62.62c4.28,0,8.35.81,12.2,2.42,3.85,1.62,7.3,3.94,10.34,6.98,3.04,3.04,5.35,6.46,6.92,10.26,1.57,3.8,2.35,7.84,2.35,12.11v3.42h-22.23Z"/>
  <path fill="currentColor" d="M538.78,200.64h-64.55c-4.84,0-9.45-.9-13.82-2.71-4.37-1.8-8.27-4.42-11.69-7.84-3.33-3.42-5.91-7.31-7.77-11.68-1.85-4.37-2.78-8.98-2.78-13.82v-32.49c0-4.84.93-9.45,2.78-13.82,1.85-4.37,4.44-8.27,7.77-11.69,3.42-3.42,7.31-6.03,11.69-7.84,4.37-1.8,8.98-2.71,13.82-2.71h64.55c4.84,0,9.45.9,13.82,2.71,4.37,1.81,8.27,4.42,11.69,7.84,3.42,3.42,6.03,7.32,7.84,11.69,1.8,4.37,2.71,8.98,2.71,13.82v32.49c0,4.85-.9,9.45-2.71,13.82-1.81,4.37-4.42,8.27-7.84,11.68-3.42,3.42-7.32,6.03-11.69,7.84-4.37,1.81-8.98,2.71-13.82,2.71M474.22,118.27c-1.9,0-3.68.36-5.34,1.07-1.66.71-3.14,1.69-4.42,2.92-1.28,1.23-2.28,2.71-2.99,4.42-.71,1.71-1.07,3.52-1.07,5.41v32.49c0,1.9.36,3.7,1.07,5.42.71,1.71,1.71,3.18,2.99,4.42,1.28,1.24,2.75,2.21,4.42,2.92,1.66.71,3.44,1.07,5.34,1.07h64.55c1.9,0,3.68-.36,5.34-1.07,1.66-.71,3.14-1.69,4.42-2.92,1.28-1.23,2.28-2.71,2.99-4.42.71-1.71,1.07-3.51,1.07-5.42v-32.49c0-1.9-.36-3.7-1.07-5.41-.71-1.71-1.71-3.18-2.99-4.42-1.28-1.23-2.76-2.21-4.42-2.92-1.66-.71-3.44-1.07-5.34-1.07h-64.55Z"/>
  <path fill="currentColor" d="M709.21,159.31c4.94,5.8,7.41,12.59,7.41,20.38v20.95h-22.23v-20.95c0-2.47-.9-4.61-2.7-6.41-1.8-1.8-3.94-2.71-6.4-2.71h-72.55v30.07h-22.23v-104.6h94.62c4.28,0,8.31.78,12.11,2.35,3.8,1.57,7.17,3.83,10.12,6.77,6.18,6.18,9.26,13.59,9.26,22.23v11.68c0,3.8-.64,7.43-1.92,10.9-1.28,3.47-3.11,6.58-5.49,9.33M685.14,148.34c2.56,0,4.74-.9,6.54-2.71,1.8-1.8,2.7-3.99,2.7-6.56v-11.68c0-2.47-.9-4.61-2.7-6.41-1.8-1.8-3.98-2.71-6.54-2.71h-72.41v30.07h72.41Z"/>
  <polygon fill="currentColor" points="754.52 200.64 732.29 200.64 732.29 96.04 759.94 96.04 837.46 174.84 837.46 96.18 859.69 96.18 859.69 200.64 831.62 200.64 754.52 122.12 754.52 200.64"/>
  <polygon fill="currentColor" points="998.63 117.98 897.6 117.98 897.6 137.08 998.63 137.08 998.63 159.31 897.6 159.31 897.6 178.55 998.63 178.55 998.63 200.78 875.36 200.78 875.36 95.75 998.63 95.75 998.63 117.98"/>
  <path fill="currentColor" d="M1133.01,159.31c4.94,5.8,7.41,12.59,7.41,20.38v20.95h-22.23v-20.95c0-2.47-.9-4.61-2.7-6.41-1.8-1.8-3.94-2.71-6.4-2.71h-72.55v30.07h-22.23v-104.6h94.62c4.27,0,8.31.78,12.11,2.35,3.8,1.57,7.17,3.83,10.12,6.77,6.17,6.18,9.26,13.59,9.26,22.23v11.68c0,3.8-.64,7.43-1.92,10.9-1.28,3.47-3.11,6.58-5.49,9.33M1108.94,148.34c2.56,0,4.74-.9,6.55-2.71,1.8-1.8,2.7-3.99,2.7-6.56v-11.68c0-2.47-.9-4.61-2.7-6.41-1.8-1.8-3.98-2.71-6.55-2.71h-72.41v30.07h72.41Z"/>
  <path fill="currentColor" d="M1265.11,131.09v-3.42c0-2.56-.9-4.77-2.71-6.63-1.81-1.85-4.04-2.78-6.7-2.78h-67.83c-2.66,0-4.92.93-6.77,2.78-1.85,1.85-2.78,4.06-2.78,6.63s.93,4.92,2.78,6.77c1.85,1.85,4.06,2.78,6.63,2.78h67.97c4.27,0,8.31.78,12.11,2.35,3.8,1.57,7.22,3.87,10.26,6.91,3.04,3.04,5.34,6.46,6.91,10.26,1.57,3.8,2.35,7.84,2.35,12.11s-.78,8.34-2.35,12.18c-1.57,3.85-3.87,7.29-6.91,10.33-3.04,3.04-6.46,5.34-10.26,6.91-3.8,1.57-7.84,2.35-12.11,2.35h-67.97c-4.28,0-8.32-.78-12.11-2.35-3.8-1.57-7.22-3.87-10.26-6.91-3.04-3.04-5.34-6.46-6.91-10.26-1.57-3.8-2.35-7.84-2.35-12.11v-3.42h22.23v3.42c0,2.57.93,4.77,2.78,6.63,1.85,1.85,4.06,2.78,6.63,2.78h67.97c2.66,0,4.89-.93,6.7-2.78,1.8-1.85,2.71-4.11,2.71-6.77s-.93-4.77-2.78-6.63c-1.85-1.85-4.06-2.78-6.63-2.78h-67.83c-4.27,0-8.33-.78-12.18-2.35-3.85-1.57-7.29-3.87-10.33-6.91-3.04-3.04-5.34-6.48-6.91-10.33-1.57-3.85-2.35-7.91-2.35-12.18s.78-8.31,2.35-12.11c1.57-3.8,3.87-7.22,6.91-10.26,3.04-3.04,6.48-5.34,10.33-6.91,3.85-1.57,7.91-2.35,12.18-2.35h67.83c4.27,0,8.31.78,12.11,2.35,3.8,1.57,7.22,3.87,10.26,6.91,3.04,3.04,5.34,6.46,6.91,10.26,1.57,3.8,2.35,7.84,2.35,12.11v3.42h-22.23Z"/>
  <polygon fill="currentColor" points="1432.55 96.04 1432.55 118.27 1378.83 118.27 1378.83 200.92 1356.6 200.92 1356.6 118.27 1303.01 118.27 1303.01 96.04 1432.55 96.04"/>
  <path fill="currentColor" d="M1548.83,200.64h-64.55c-4.84,0-9.46-.9-13.82-2.71-4.37-1.8-8.27-4.42-11.68-7.84-3.33-3.42-5.91-7.31-7.77-11.68-1.85-4.37-2.78-8.98-2.78-13.82v-32.49c0-4.84.93-9.45,2.78-13.82,1.85-4.37,4.44-8.27,7.77-11.69,3.42-3.42,7.31-6.03,11.68-7.84,4.37-1.8,8.98-2.71,13.82-2.71h64.55c4.85,0,9.45.9,13.82,2.71,4.37,1.81,8.27,4.42,11.69,7.84,3.42,3.42,6.03,7.32,7.84,11.69,1.8,4.37,2.71,8.98,2.71,13.82v32.49c0,4.85-.9,9.45-2.71,13.82-1.81,4.37-4.42,8.27-7.84,11.68-3.42,3.42-7.32,6.03-11.69,7.84-4.37,1.81-8.98,2.71-13.82,2.71M1484.28,118.27c-1.9,0-3.68.36-5.34,1.07-1.66.71-3.14,1.69-4.42,2.92-1.28,1.23-2.28,2.71-2.99,4.42-.71,1.71-1.07,3.52-1.07,5.41v32.49c0,1.9.36,3.7,1.07,5.42.71,1.71,1.71,3.18,2.99,4.42,1.28,1.24,2.75,2.21,4.42,2.92,1.66.71,3.44,1.07,5.34,1.07h64.55c1.9,0,3.68-.36,5.34-1.07,1.66-.71,3.14-1.69,4.42-2.92,1.28-1.23,2.28-2.71,2.99-4.42.71-1.71,1.07-3.51,1.07-5.42v-32.49c0-1.9-.36-3.7-1.07-5.41-.71-1.71-1.71-3.18-2.99-4.42-1.28-1.23-2.76-2.21-4.42-2.92-1.66-.71-3.44-1.07-5.34-1.07h-64.55Z"/>
  <polygon fill="currentColor" points="1622.79 200.64 1600.56 200.64 1600.56 96.04 1628.2 96.04 1705.73 174.84 1705.73 96.18 1727.96 96.18 1727.96 200.64 1699.89 200.64 1622.79 122.12 1622.79 200.64"/>
  <polygon fill="currentColor" points="1866.9 117.98 1765.86 117.98 1765.86 137.08 1866.9 137.08 1866.9 159.31 1765.86 159.31 1765.86 178.55 1866.9 178.55 1866.9 200.78 1743.63 200.78 1743.63 95.75 1866.9 95.75 1866.9 117.98"/>
  <polygon fill="currentColor" points="116.1 179.25 176.84 239.99 200.43 239.99 216.44 239.99 237.59 239.99 237.59 179.25 116.1 179.25"/>
  <polygon fill="currentColor" points="55.35 57.76 55.35 118.5 116.1 179.25 116.1 118.5 237.59 118.5 237.59 57.76 55.35 57.76"/>
  <rect fill="#d1a35a" x="53.1" y="179.25" width="62.99" height="62.99"/>
</svg>
